<svg xmlns="http://www.w3.org/2000/svg" width="13" height="15" viewBox="0 0 13 15">
  <path id="calendar_month_FILL0_wght400_GRAD0_opsz48" d="M12.5,13a.686.686,0,0,1-.515-.216.791.791,0,0,1,0-1.069.722.722,0,0,1,1.029,0,.791.791,0,0,1,0,1.069A.686.686,0,0,1,12.5,13ZM9.611,13a.686.686,0,0,1-.515-.216.791.791,0,0,1,0-1.069.722.722,0,0,1,1.029,0,.791.791,0,0,1,0,1.069A.686.686,0,0,1,9.611,13Zm5.778,0a.686.686,0,0,1-.515-.216.791.791,0,0,1,0-1.069.722.722,0,0,1,1.029,0,.791.791,0,0,1,0,1.069A.686.686,0,0,1,15.389,13ZM12.5,16a.686.686,0,0,1-.515-.216.791.791,0,0,1,0-1.069.722.722,0,0,1,1.029,0,.791.791,0,0,1,0,1.069A.686.686,0,0,1,12.5,16ZM9.611,16a.686.686,0,0,1-.515-.216.791.791,0,0,1,0-1.069.722.722,0,0,1,1.029,0,.791.791,0,0,1,0,1.069A.686.686,0,0,1,9.611,16Zm5.778,0a.686.686,0,0,1-.515-.216.791.791,0,0,1,0-1.069.722.722,0,0,1,1.029,0,.791.791,0,0,1,0,1.069A.686.686,0,0,1,15.389,16ZM7.083,19a1.021,1.021,0,0,1-.758-.338A1.1,1.1,0,0,1,6,17.875V6.25a1.1,1.1,0,0,1,.325-.788,1.021,1.021,0,0,1,.758-.337H8.257V4H9.431V5.125h6.139V4h1.174V5.125h1.174a1.021,1.021,0,0,1,.758.337A1.1,1.1,0,0,1,19,6.25V17.875a1.1,1.1,0,0,1-.325.788,1.021,1.021,0,0,1-.758.338Zm0-1.125H17.917V9.812H7.083v8.062Zm0-9.187H17.917V6.25H7.083Zm0,0V6.25h0Z" transform="translate(-6 -4)"/>
</svg>
